<svg width="900" height="600" viewBox="0 0 900 600" fill="none" xmlns="http://www.w3.org/2000/svg">
<path d="M900 148L891.2 150C882.3 152 864.7 156 847 155.3C829.3 154.7 811.7 149.3 794 145.7C776.3 142 758.7 140 741 142C723.3 144 705.7 150 688 147.3C670.3 144.7 652.7 133.3 635 124.3C617.3 115.3 599.7 108.7 582 114.2C564.3 119.7 546.7 137.3 529 146.7C511.3 156 493.7 157 476.2 152.5C458.7 148 441.3 138 423.8 138.3C406.3 138.7 388.7 149.3 371 148.8C353.3 148.3 335.7 136.7 318 127.5C300.3 118.3 282.7 111.7 265 109.7C247.3 107.7 229.7 110.3 212 111.7C194.3 113 176.7 113 159 112.2C141.3 111.3 123.7 109.7 106 111.5C88.3 113.3 70.7 118.7 53 119.3C35.3 120 17.7 116 8.79999 114L3.7925e-06 112L1.35839e-05 7.39074e-05L8.8 7.46767e-05C17.7 7.54548e-05 35.3 7.69934e-05 53 7.85408e-05C70.7 8.00882e-05 88.3 8.16268e-05 106 8.31742e-05C123.7 8.47216e-05 141.3 8.62602e-05 159 8.78076e-05C176.7 8.9355e-05 194.3 9.08936e-05 212 9.2441e-05C229.7 9.39884e-05 247.3 9.5527e-05 265 9.70744e-05C282.7 9.86218e-05 300.3 0.00010016 318 0.000101708C335.7 0.000103255 353.3 0.000104794 371 0.000106341C388.7 0.000107889 406.3 0.000109427 423.8 0.000110957C441.3 0.000112487 458.7 0.000114008 476.2 0.000115538C493.7 0.000117068 511.3 0.000118607 529 0.000120154C546.7 0.000121701 564.3 0.00012324 582 0.000124787C599.7 0.000126335 617.3 0.000127873 635 0.000129421C652.7 0.000130968 670.3 0.000132507 688 0.000134054C705.7 0.000135602 723.3 0.00013714 741 0.000138688C758.7 0.000140235 776.3 0.000141774 794 0.000143321C811.7 0.000144868 829.3 0.000146407 847 0.000147954C864.7 0.000149502 882.3 0.000151041 891.2 0.000151819L900 0.000152588L900 148Z" fill="#8836FF"/>
<path d="M900 88.0001L891.2 85.7001C882.3 83.3001 864.7 78.7001 847 78.0001C829.3 77.3001 811.7 80.7001 794 88.5001C776.3 96.3001 758.7 108.7 741 109.5C723.3 110.3 705.7 99.7001 688 97.8001C670.3 96.0001 652.7 103 635 100.3C617.3 97.7001 599.7 85.3001 582 86.2001C564.3 87.0001 546.7 101 529 110.5C511.3 120 493.7 125 476.2 123C458.7 121 441.3 112 423.8 111.7C406.3 111.3 388.7 119.7 371 115.2C353.3 110.7 335.7 93.3001 318 87.8001C300.3 82.3001 282.7 88.7001 265 95.3001C247.3 102 229.7 109 212 105.5C194.3 102 176.7 88.0001 159 81.3C141.3 74.7 123.7 75.3001 106 82.0001C88.3 88.7001 70.7 101.3 53 106.8C35.3 112.3 17.7 110.7 8.79999 109.8L1.26205e-06 109L1.07911e-05 4.33898e-05L8.8 4.41591e-05C17.7 4.49372e-05 35.3 4.64758e-05 53 4.80232e-05C70.7 4.95706e-05 88.3 5.11092e-05 106 5.26566e-05C123.7 5.4204e-05 141.3 5.57427e-05 159 5.729e-05C176.7 5.88374e-05 194.3 6.03761e-05 212 6.19234e-05C229.7 6.34708e-05 247.3 6.50095e-05 265 6.65568e-05C282.7 6.81042e-05 300.3 6.96429e-05 318 7.11903e-05C335.7 7.27376e-05 353.3 7.42763e-05 371 7.58237e-05C388.7 7.7371e-05 406.3 7.89097e-05 423.8 8.04396e-05C441.3 8.19695e-05 458.7 8.34906e-05 476.2 8.50205e-05C493.7 8.65504e-05 511.3 8.80891e-05 529 8.96365e-05C546.7 9.11838e-05 564.3 9.27225e-05 582 9.42699e-05C599.7 9.58173e-05 617.3 9.73559e-05 635 9.89033e-05C652.7 0.000100451 670.3 0.000101989 688 0.000103537C705.7 0.000105084 723.3 0.000106623 741 0.00010817C758.7 0.000109717 776.3 0.000111256 794 0.000112803C811.7 0.000114351 829.3 0.00011589 847 0.000117437C864.7 0.000118984 882.3 0.000120523 891.2 0.000121301L900 0.00012207L900 88.0001Z" fill="#009EFF"/>
<path d="M900 64.0004L891.2 66.8003C882.3 69.7003 864.7 75.3003 847 73.3003C829.3 71.3003 811.7 61.7003 794 62.3003C776.3 63.0003 758.7 74.0004 741 74.2004C723.3 74.3003 705.7 63.7003 688 59.2003C670.3 54.7003 652.7 56.3003 635 63.8003C617.3 71.3003 599.7 84.7003 582 85.0003C564.3 85.3003 546.7 72.7003 529 66.2003C511.3 59.7003 493.7 59.3003 476.2 62.0003C458.7 64.7003 441.3 70.3003 423.8 72.5003C406.3 74.7003 388.7 73.3003 371 69.2003C353.3 65.0003 335.7 58.0003 318 54.5003C300.3 51.0003 282.7 51.0003 265 54.3003C247.3 57.7003 229.7 64.3003 212 66.5003C194.3 68.7003 176.7 66.3003 159 70.0003C141.3 73.7003 123.7 83.3003 106 83.8003C88.3 84.3003 70.7 75.7003 53 73.5003C35.3 71.3003 17.7 75.7003 8.79999 77.8003L4.37574e-07 80.0003L7.4314e-06 0.000272272L8.8 0.000273041C17.7 0.000273819 35.3 0.000275358 53 0.000276905C70.7 0.000278452 88.3 0.000279991 106 0.000281538C123.7 0.000283086 141.3 0.000284624 159 0.000286172C176.7 0.000287719 194.3 0.000289258 212 0.000290805C229.7 0.000292353 247.3 0.000293891 265 0.000295439C282.7 0.000296986 300.3 0.000298525 318 0.000300072C335.7 0.000301619 353.3 0.000303158 371 0.000304705C388.7 0.000306253 406.3 0.000307792 423.8 0.000309321C441.3 0.000310851 458.7 0.000312372 476.2 0.000313902C493.7 0.000315432 511.3 0.000316971 529 0.000318518C546.7 0.000320066 564.3 0.000321604 582 0.000323152C599.7 0.000324699 617.3 0.000326238 635 0.000327785C652.7 0.000329332 670.3 0.000330871 688 0.000332419C705.7 0.000333966 723.3 0.000335505 741 0.000337052C758.7 0.000338599 776.3 0.000340138 794 0.000341685C811.7 0.000343233 829.3 0.000344771 847 0.000346319C864.7 0.000347866 882.3 0.000349405 891.2 0.000350183L900 0.000350952L900 64.0004Z" fill="#00D0F8"/>
<path d="M900 60.0002L891.2 56.0002C882.3 52.0002 864.7 44.0003 847 43.2003C829.3 42.3003 811.7 48.7002 794 45.3002C776.3 42.0002 758.7 29.0002 741 27.0002C723.3 25.0002 705.7 34.0002 688 41.0002C670.3 48.0002 652.7 53.0002 635 51.0002C617.3 49.0002 599.7 40.0002 582 38.8002C564.3 37.7002 546.7 44.3002 529 48.3002C511.3 52.3002 493.7 53.7002 476.2 48.7002C458.7 43.7002 441.3 32.3002 423.8 27.3002C406.3 22.3002 388.7 23.7002 371 27.3002C353.3 31.0002 335.7 37.0002 318 37.0002C300.3 37.0002 282.7 31.0002 265 33.2002C247.3 35.3002 229.7 45.7002 212 51.5002C194.3 57.3002 176.7 58.7002 159 52.2002C141.3 45.7002 123.7 31.3002 106 27.2002C88.3 23.0002 70.7 29.0002 53 29.8002C35.3 30.7002 17.7 26.3002 8.79999 24.2002L3.32207e-06 22.0002L5.24537e-06 0.00016546L8.79999 0.000166229C17.7 0.000167008 35.3 0.000168546 53 0.000170094C70.7 0.000171641 88.3 0.00017318 106 0.000174727C123.7 0.000176274 141.3 0.000177813 159 0.00017936C176.7 0.000180908 194.3 0.000182446 212 0.000183994C229.7 0.000185541 247.3 0.00018708 265 0.000188627C282.7 0.000190175 300.3 0.000191713 318 0.000193261C335.7 0.000194808 353.3 0.000196347 371 0.000197894C388.7 0.000199441 406.3 0.00020098 423.8 0.00020251C441.3 0.00020404 458.7 0.000205561 476.2 0.000207091C493.7 0.000208621 511.3 0.000210159 529 0.000211707C546.7 0.000213254 564.3 0.000214793 582 0.00021634C599.7 0.000217888 617.3 0.000219426 635 0.000220974C652.7 0.000222521 670.3 0.00022406 688 0.000225607C705.7 0.000227154 723.3 0.000228693 741 0.00023024C758.7 0.000231788 776.3 0.000233326 794 0.000234874C811.7 0.000236421 829.3 0.00023796 847 0.000239507C864.7 0.000241055 882.3 0.000242593 891.2 0.000243371L900 0.000244141L900 60.0002Z" fill="#1EE990"/>
</svg>
