<svg width="1440" height="931" viewBox="0 0 1440 931" fill="none" xmlns="http://www.w3.org/2000/svg">
<g clip-path="url(#clip0)">
<path d="M-1.0686 651.739L25.6698 665.221C52.2481 678.548 105.725 705.511 159.042 700.863C212.358 696.214 265.835 659.952 319.152 654.064C372.468 648.175 425.945 672.349 479.262 693.579C532.579 714.809 586.055 732.785 639.372 719.458C692.689 705.976 746.166 661.037 799.482 648.64C852.799 636.243 906.276 656.388 959.592 678.548C1012.91 700.862 1066.39 725.037 1119.7 718.373C1173.02 711.71 1226.5 673.899 1279.81 656.853C1333.13 639.807 1386.61 643.526 1413.18 645.231L1439.92 647.09V932.223H1413.18C1386.61 932.223 1333.13 932.223 1279.81 932.223C1226.5 932.223 1173.02 932.223 1119.7 932.223C1066.39 932.223 1012.91 932.223 959.592 932.223C906.276 932.223 852.799 932.223 799.482 932.223C746.166 932.223 692.689 932.223 639.372 932.223C586.055 932.223 532.579 932.223 479.262 932.223C425.945 932.223 372.468 932.223 319.152 932.223C265.835 932.223 212.358 932.223 159.042 932.223C105.725 932.223 52.2481 932.223 25.6698 932.223H-1.0686V651.739Z" fill="#8836FF"/>
<path d="M-0.949906 753.893L25.7981 749.771C52.3857 745.803 105.882 737.56 159.222 727.611C212.562 717.662 266.066 706.009 319.356 717.445C372.646 728.881 426.042 763.717 479.36 763.221C532.678 762.879 586.237 727.362 639.555 727.176C692.871 727.145 746.267 762.29 799.576 765.513C852.886 768.736 906.429 740.037 959.788 721.721C1013.15 703.559 1066.64 695.935 1119.94 702.257C1173.25 708.579 1226.68 728.848 1280 727.732C1333.32 726.462 1386.84 703.961 1413.45 692.555L1440.21 681.305L1439.63 933.895L1412.89 933.833C1386.31 933.771 1332.83 933.647 1279.52 933.523C1226.2 933.4 1172.72 933.275 1119.41 933.152C1066.09 933.028 1012.62 932.904 959.299 932.78C905.982 932.656 852.505 932.532 799.189 932.409C745.872 932.285 692.396 932.161 639.079 932.037C585.763 931.913 532.286 931.789 478.969 931.665C425.653 931.542 372.176 931.418 318.86 931.294C265.543 931.17 212.066 931.046 158.75 930.922C105.433 930.799 51.9567 930.674 25.3784 930.613L-1.3599 930.551L-0.949906 753.893Z" fill="#009EFF"/>
<path d="M-1.0686 820.649L25.6698 823.749C52.2481 826.848 105.725 833.046 159.042 821.114C212.358 809.337 265.835 779.274 319.152 772.611C372.468 765.947 425.945 782.373 479.262 796.63C532.579 810.887 586.055 822.664 639.372 829.482C692.689 836.146 746.166 837.695 799.482 827.158C852.799 816.465 906.276 793.841 959.592 793.066C1012.91 792.291 1066.39 813.366 1119.7 824.523C1173.02 835.681 1226.5 836.611 1279.81 832.736C1333.13 828.862 1386.61 820.184 1413.18 815.69L1439.92 811.352V932.223H1413.18C1386.61 932.223 1333.13 932.223 1279.81 932.223C1226.5 932.223 1173.02 932.223 1119.7 932.223C1066.39 932.223 1012.91 932.223 959.592 932.223C906.276 932.223 852.799 932.223 799.482 932.223C746.166 932.223 692.689 932.223 639.372 932.223C586.055 932.223 532.579 932.223 479.262 932.223C425.945 932.223 372.468 932.223 319.152 932.223C265.835 932.223 212.358 932.223 159.042 932.223C105.725 932.223 52.2481 932.223 25.6698 932.223H-1.0686V820.649Z" fill="#00D0F8"/>
<path d="M-1.0686 837.695L25.6698 843.429C52.2481 849.008 105.725 860.475 159.042 863.264C212.358 866.054 265.835 860.475 319.152 862.18C372.468 864.039 425.945 873.337 479.262 871.787C532.579 870.238 586.055 857.841 639.372 855.051C692.689 852.107 746.166 858.925 799.482 865.589C852.799 872.252 906.276 879.071 959.592 876.746C1012.91 874.422 1066.39 862.954 1119.7 850.557C1173.02 838.16 1226.5 824.833 1279.81 821.114C1333.13 817.55 1386.61 823.749 1413.18 826.848L1439.92 829.947V932.223H1413.18C1386.61 932.223 1333.13 932.223 1279.81 932.223C1226.5 932.223 1173.02 932.223 1119.7 932.223C1066.39 932.223 1012.91 932.223 959.592 932.223C906.276 932.223 852.799 932.223 799.482 932.223C746.166 932.223 692.689 932.223 639.372 932.223C586.055 932.223 532.579 932.223 479.262 932.223C425.945 932.223 372.468 932.223 319.152 932.223C265.835 932.223 212.358 932.223 159.042 932.223C105.725 932.223 52.2481 932.223 25.6698 932.223H-1.0686V837.695Z" fill="#1EE990"/>
</g>
<defs>
<clipPath id="clip0">
<rect width="1440.99" height="929.781" fill="white" transform="translate(-1.0686 0.892578)"/>
</clipPath>
</defs>
</svg>
