<?xml version="1.0" encoding="UTF-8"?>
<svg xmlns="http://www.w3.org/2000/svg" xmlns:xlink="http://www.w3.org/1999/xlink" viewBox="0 0 128 128" width="128px" height="128px">
<g id="surface111238786">
<path style=" stroke:none;fill-rule:nonzero;fill:rgb(0%,0%,0%);fill-opacity:1;" d="M 17.070312 10.238281 C 13.328125 10.238281 10.238281 13.328125 10.238281 17.070312 L 10.238281 110.929688 C 10.238281 114.671875 13.328125 117.761719 17.070312 117.761719 L 110.929688 117.761719 C 114.671875 117.761719 117.761719 114.679688 117.761719 110.929688 L 117.761719 17.070312 C 117.761719 13.328125 114.679688 10.238281 110.929688 10.238281 Z M 17.070312 15.359375 L 110.929688 15.359375 C 111.878906 15.359375 112.640625 16.121094 112.640625 17.070312 L 112.640625 110.929688 C 112.640625 111.878906 111.878906 112.640625 110.929688 112.640625 L 17.070312 112.640625 C 16.121094 112.640625 15.359375 111.878906 15.359375 110.929688 L 15.359375 17.070312 C 15.359375 16.121094 16.121094 15.359375 17.070312 15.359375 Z M 58.878906 58.878906 L 58.878906 91.070312 C 58.878906 96.011719 57.011719 97.28125 53.761719 97.28125 C 50.359375 97.28125 48 95.160156 46.441406 92.410156 L 38.398438 97.28125 C 40.730469 102.210938 46.441406 107.519531 54.359375 107.519531 C 63.121094 107.519531 69.121094 102.859375 69.121094 92.628906 L 69.121094 58.878906 Z M 90.761719 58.878906 C 82.039062 58.878906 76.449219 64.460938 76.449219 71.789062 C 76.449219 79.738281 81.140625 83.5 88.191406 86.5 L 90.628906 87.550781 C 95.078125 89.5 97.28125 90.691406 97.28125 94.039062 C 97.28125 96.828125 95.160156 98.851562 91.109375 98.851562 C 86.289062 98.851562 84.011719 95.578125 81.921875 92.160156 L 74.238281 97.28125 C 77.109375 102.949219 82.261719 107.519531 91.328125 107.519531 C 100.609375 107.519531 107.519531 102.699219 107.519531 93.910156 C 107.519531 85.75 102.839844 82.121094 94.53125 78.558594 L 92.089844 77.519531 C 87.898438 75.699219 86.078125 74.519531 86.078125 71.589844 C 86.078125 69.21875 87.898438 67.398438 90.761719 67.398438 C 93.570312 67.398438 95.371094 68.589844 97.039062 71.589844 L 104.648438 66.710938 C 101.441406 61.039062 96.96875 58.878906 90.761719 58.878906 Z M 90.761719 58.878906 "/>
</g>
</svg>
