<svg width="405" height="109" viewBox="0 0 405 109" fill="none" xmlns="http://www.w3.org/2000/svg">
<path d="M2.86023 66.1249C2.86023 62.6785 4.90846 59.5797 8.17096 58.4692C17.2912 55.3647 37.4348 49.696 62.9259 49.696C88.4171 49.696 108.561 55.3647 117.681 58.4692C120.943 59.5797 122.992 62.6785 122.992 66.1249V66.1249C122.992 72.1523 116.926 76.4633 111.116 74.859C99.8709 71.7538 81.9196 67.8363 62.9259 67.8363C43.9323 67.8363 25.981 71.7538 14.7355 74.859C8.9255 76.4633 2.86023 72.1523 2.86023 66.1249V66.1249Z" fill="#C13FFF"/>
<rect width="116.671" height="18.4586" rx="9.2293" transform="matrix(0.514615 -0.857421 0.874223 0.485525 0 100.038)" fill="#0500EE"/>
<rect width="115.573" height="18.4586" rx="9.2293" transform="matrix(-0.514615 -0.857421 -0.874222 0.485525 126.682 99.095)" fill="#562FF1"/>
<path d="M2.86023 96.3907C2.86023 92.9444 4.90846 89.8456 8.17096 88.735C17.2912 85.6306 37.4348 79.9619 62.9259 79.9619C88.4171 79.9619 108.561 85.6306 117.681 88.735C120.943 89.8456 122.992 92.9444 122.992 96.3907V96.3907C122.992 102.418 116.926 106.729 111.116 105.125C99.8709 102.02 81.9196 98.1021 62.9259 98.1021C43.9323 98.1021 25.981 102.02 14.7355 105.125C8.9255 106.729 2.86023 102.418 2.86023 96.3907V96.3907Z" fill="#9800E0"/>
<path d="M106.114 101.087L85.5923 66.8953C82.9692 62.5248 84.4551 56.9756 88.9112 54.5008C93.3673 52.026 99.1061 53.5627 101.729 57.9332L122.25 92.1244C124.874 96.4949 123.388 102.044 118.932 104.519C114.475 106.994 108.737 105.457 106.114 101.087Z" fill="#562FF1"/>
<path d="M55.0436 7.91344L34.5223 42.1047C31.8992 46.4752 33.3852 52.0244 37.8413 54.4992C42.2973 56.974 48.0362 55.4373 50.6593 51.0668L71.1805 16.8756C73.8036 12.5051 72.3177 6.95592 67.8616 4.4811C63.4055 2.00628 57.6667 3.54299 55.0436 7.91344Z" fill="#0500EE"/>
<path d="M117.681 58.4692C109.672 55.743 93.163 51.0395 71.9967 49.9337C66.9943 49.6723 62.9261 53.7569 62.9261 58.7662C62.9261 63.7754 66.9921 67.8135 71.9919 68.121C87.5242 69.0762 101.681 72.2536 111.117 74.859C116.927 76.4633 122.992 72.1523 122.992 66.1249C122.992 62.6785 120.944 59.5797 117.681 58.4692Z" fill="#C13FFF"/>
<path d="M166.62 85.93H159.55L143.45 39.38H150.1L163.12 76.83L176.14 39.38H182.72L166.62 85.93ZM190.513 45.96C189.626 45.96 188.856 45.6567 188.203 45.05C187.596 44.3967 187.293 43.6267 187.293 42.74C187.293 41.8533 187.596 41.1067 188.203 40.5C188.856 39.8467 189.626 39.52 190.513 39.52C191.4 39.52 192.146 39.8467 192.753 40.5C193.406 41.1067 193.733 41.8533 193.733 42.74C193.733 43.6267 193.406 44.3967 192.753 45.05C192.146 45.6567 191.4 45.96 190.513 45.96ZM187.643 86V51H193.523V86H187.643ZM211.26 57.3V86H205.31V57.3H200.06V51H205.31V39.45H211.26V51H216.51V57.3H211.26ZM249.071 86V80.68C247.577 82.4067 245.851 83.7833 243.891 84.81C241.931 85.8367 239.854 86.35 237.661 86.35C235.234 86.35 232.947 85.9067 230.801 85.02C228.701 84.1333 226.834 82.8733 225.201 81.24C223.567 79.6533 222.284 77.7867 221.351 75.64C220.464 73.4467 220.021 71.16 220.021 68.78C220.021 66.4 220.464 64.1367 221.351 61.99C222.284 59.7967 223.567 57.8833 225.201 56.25C226.834 54.6167 228.701 53.3567 230.801 52.47C232.947 51.5833 235.234 51.14 237.661 51.14C239.901 51.14 242.001 51.6067 243.961 52.54C245.967 53.4733 247.671 54.78 249.071 56.46V51.84H255.371V86H249.071ZM237.661 57.37C236.121 57.37 234.627 57.6733 233.181 58.28C231.781 58.84 230.567 59.6333 229.541 60.66C228.514 61.6867 227.697 62.9233 227.091 64.37C226.531 65.77 226.251 67.24 226.251 68.78C226.251 70.32 226.531 71.79 227.091 73.19C227.697 74.59 228.514 75.8033 229.541 76.83C230.567 77.8567 231.781 78.6733 233.181 79.28C234.627 79.84 236.121 80.12 237.661 80.12C239.201 80.12 240.671 79.84 242.071 79.28C243.471 78.6733 244.684 77.8567 245.711 76.83C246.737 75.8033 247.531 74.59 248.091 73.19C248.697 71.79 249.001 70.32 249.001 68.78C249.001 67.24 248.697 65.77 248.091 64.37C247.531 62.9233 246.737 61.6867 245.711 60.66C244.684 59.6333 243.471 58.84 242.071 58.28C240.671 57.6733 239.201 57.37 237.661 57.37ZM262.352 86V39.45H267.952V86H262.352ZM306.92 86L301.18 69.62H286.62L280.88 86H274.23L290.4 39.52H297.4L313.57 86H306.92ZM293.9 48.55L288.58 63.74H299.15L293.9 48.55ZM335.452 57.72C334.332 57.2067 333.328 56.95 332.442 56.95C330.575 56.95 329.035 57.6033 327.822 58.91C326.515 60.31 325.862 61.92 325.862 63.74V86H319.842V63.74C319.842 61.22 320.472 58.91 321.732 56.81C323.038 54.71 324.812 53.0767 327.052 51.91C328.732 51.1167 330.528 50.72 332.442 50.72C333.982 50.72 335.452 51 336.852 51.56C338.252 52.12 339.722 53.03 341.262 54.29L335.452 57.72ZM357.412 57.3V86H351.462V57.3H346.212V51H351.462V39.45H357.412V51H362.662V57.3H357.412ZM372.893 71.16C372.893 72.28 373.29 73.4467 374.083 74.66C374.923 75.8733 375.88 76.9 376.953 77.74C378.913 79.28 381.2 80.05 383.813 80.05C387.966 80.05 391.35 78.0433 393.963 74.03L399.283 77.18C397.463 80.12 395.223 82.3833 392.563 83.97C389.903 85.5567 386.986 86.35 383.813 86.35C381.433 86.35 379.17 85.9067 377.023 85.02C374.876 84.0867 372.986 82.8033 371.353 81.17C369.72 79.5367 368.436 77.6467 367.503 75.5C366.616 73.3533 366.173 71.09 366.173 68.71C366.173 66.33 366.616 64.0667 367.503 61.92C368.436 59.7267 369.72 57.8133 371.353 56.18C372.94 54.5467 374.806 53.2867 376.953 52.4C379.146 51.5133 381.433 51.07 383.813 51.07C386.193 51.07 388.456 51.5133 390.603 52.4C392.796 53.2867 394.686 54.5467 396.273 56.18C399.726 59.7267 401.453 63.8333 401.453 68.5C401.453 69.34 401.383 70.2267 401.243 71.16H372.893ZM383.813 56.81C381.9 56.81 380.103 57.23 378.423 58.07C376.743 58.91 375.39 60.03 374.363 61.43C373.383 62.7833 372.893 64.23 372.893 65.77H394.733C394.733 64.23 394.22 62.7833 393.193 61.43C392.213 60.03 390.883 58.91 389.203 58.07C387.523 57.23 385.726 56.81 383.813 56.81Z" fill="black"/>
</svg>
