<?xml version="1.0" encoding="UTF-8"?>
<svg xmlns="http://www.w3.org/2000/svg" xmlns:xlink="http://www.w3.org/1999/xlink" viewBox="0 0 128 128" width="128px" height="128px">
<g id="surface111236901">
<path style=" stroke:none;fill-rule:nonzero;fill:rgb(0%,0%,0%);fill-opacity:1;" d="M 117.285156 63.027344 C 117.46875 51.664062 114.910156 38.152344 109.574219 22.296875 L 105.394531 9.867188 L 99.714844 21.6875 C 99.410156 22.320312 99.0625 22.9375 98.703125 23.550781 C 89.371094 15.539062 77.265625 10.667969 64 10.667969 C 34.542969 10.667969 10.667969 34.542969 10.667969 64 C 10.667969 93.457031 34.542969 117.332031 64 117.332031 C 93.457031 117.332031 117.332031 93.457031 117.332031 64 C 117.332031 63.671875 117.289062 63.355469 117.285156 63.027344 Z M 117.285156 63.027344 "/>
<path style=" stroke:none;fill-rule:nonzero;fill:rgb(100%,100%,100%);fill-opacity:1;" d="M 105.027344 86.820312 C 96.699219 98.292969 81.957031 98.910156 68.082031 98.667969 L 44.832031 98.667969 C 56.640625 94.417969 63.667969 93.40625 70.84375 89.601562 C 84.355469 82.492188 97.71875 66.945312 100.5 50.769531 C 95.351562 66.332031 79.753906 79.703125 65.542969 85.136719 C 55.800781 88.851562 38.214844 92.457031 38.214844 92.457031 L 37.5 92.070312 C 25.527344 86.046875 25.164062 59.238281 46.933594 50.582031 C 56.464844 46.785156 65.582031 48.871094 75.878906 46.332031 C 86.871094 43.632812 99.585938 35.113281 104.757812 24 C 110.550781 41.777344 117.519531 69.617188 105.027344 86.820312 Z M 41.78125 102.519531 C 41.03125 103.453125 39.878906 104 38.679688 104 C 36.484375 104 34.691406 102.195312 34.691406 100 C 34.691406 97.804688 36.5 96 38.679688 96 C 39.589844 96 40.484375 96.316406 41.1875 96.894531 C 42.894531 98.28125 43.164062 100.8125 41.78125 102.519531 Z M 41.78125 102.519531 "/>
</g>
</svg>
