<?xml version="1.0" encoding="UTF-8" standalone="no"?>
<!DOCTYPE svg PUBLIC "-//W3C//DTD SVG 1.1//EN"
 "http://www.w3.org/Graphics/SVG/1.1/DTD/svg11.dtd">
<!-- Generated by graphviz version 2.47.3 (20210619.1520)
 -->
<!-- Title: dependencies Pages: 1 -->
<svg width="1726pt" height="247pt"
 viewBox="0.00 0.00 1726.00 246.80" xmlns="http://www.w3.org/2000/svg" xmlns:xlink="http://www.w3.org/1999/xlink">
<g id="graph0" class="graph" transform="scale(1 1) rotate(0) translate(4 242.8)">
<title>dependencies</title>
<polygon fill="white" stroke="transparent" points="-4,4 -4,-242.8 1722,-242.8 1722,4 -4,4"/>
<text text-anchor="middle" x="859" y="-8.2" font-family="sans-serif" font-size="14.00">dependencies</text>
<g id="clust1" class="cluster">
<title>cluster_AppModule</title>
<polygon fill="none" stroke="black" stroke-dasharray="1,5" points="8,-32.8 8,-230.8 1710,-230.8 1710,-32.8 8,-32.8"/>
</g>
<g id="clust14" class="cluster">
<title>cluster_AppModule_imports</title>
<polygon fill="none" stroke="black" points="1558,-40.8 1558,-92.8 1702,-92.8 1702,-40.8 1558,-40.8"/>
</g>
<g id="clust16" class="cluster">
<title>cluster_AppModule_bootstrap</title>
<polygon fill="none" stroke="black" points="753,-170.8 753,-222.8 877,-222.8 877,-170.8 753,-170.8"/>
</g>
<g id="clust2" class="cluster">
<title>cluster_AppModule_declarations</title>
<polygon fill="none" stroke="black" points="16,-40.8 16,-92.8 1550,-92.8 1550,-40.8 16,-40.8"/>
</g>
<!-- AppComponent -->
<g id="node1" class="node">
<title>AppComponent</title>
<polygon fill="#ffffb3" stroke="black" points="1541.94,-84.8 1436.06,-84.8 1436.06,-48.8 1541.94,-48.8 1541.94,-84.8"/>
<text text-anchor="middle" x="1489" y="-62.6" font-family="Times,serif" font-size="14.00">AppComponent</text>
</g>
<!-- AppModule -->
<g id="node12" class="node">
<title>AppModule</title>
<polygon fill="#8dd3c7" stroke="black" points="856.66,-149.8 853.66,-153.8 832.66,-153.8 829.66,-149.8 773.34,-149.8 773.34,-113.8 856.66,-113.8 856.66,-149.8"/>
<text text-anchor="middle" x="815" y="-127.6" font-family="Times,serif" font-size="14.00">AppModule</text>
</g>
<!-- AppComponent&#45;&gt;AppModule -->
<g id="edge1" class="edge">
<title>AppComponent&#45;&gt;AppModule</title>
<path fill="none" stroke="black" d="M1489,-85.08C1489,-106.12 1489,-137.8 1489,-137.8 1489,-137.8 866.91,-137.8 866.91,-137.8"/>
<polygon fill="black" stroke="black" points="866.91,-134.3 856.91,-137.8 866.91,-141.3 866.91,-134.3"/>
</g>
<!-- BarrauserComponent -->
<g id="node2" class="node">
<title>BarrauserComponent</title>
<polygon fill="#ffffb3" stroke="black" points="1417.74,-84.8 1282.26,-84.8 1282.26,-48.8 1417.74,-48.8 1417.74,-84.8"/>
<text text-anchor="middle" x="1350" y="-62.6" font-family="Times,serif" font-size="14.00">BarrauserComponent</text>
</g>
<!-- BarrauserComponent&#45;&gt;AppModule -->
<g id="edge2" class="edge">
<title>BarrauserComponent&#45;&gt;AppModule</title>
<path fill="none" stroke="black" d="M1350,-84.91C1350,-104.14 1350,-131.8 1350,-131.8 1350,-131.8 866.98,-131.8 866.98,-131.8"/>
<polygon fill="black" stroke="black" points="866.98,-128.3 856.98,-131.8 866.98,-135.3 866.98,-128.3"/>
</g>
<!-- CadastrarComponent -->
<g id="node3" class="node">
<title>CadastrarComponent</title>
<polygon fill="#ffffb3" stroke="black" points="1264.47,-84.8 1129.53,-84.8 1129.53,-48.8 1264.47,-48.8 1264.47,-84.8"/>
<text text-anchor="middle" x="1197" y="-62.6" font-family="Times,serif" font-size="14.00">CadastrarComponent</text>
</g>
<!-- CadastrarComponent&#45;&gt;AppModule -->
<g id="edge3" class="edge">
<title>CadastrarComponent&#45;&gt;AppModule</title>
<path fill="none" stroke="black" d="M1197,-84.82C1197,-102.17 1197,-125.8 1197,-125.8 1197,-125.8 866.97,-125.8 866.97,-125.8"/>
<polygon fill="black" stroke="black" points="866.97,-122.3 856.97,-125.8 866.97,-129.3 866.97,-122.3"/>
</g>
<!-- EditarUsuarioComponent -->
<g id="node4" class="node">
<title>EditarUsuarioComponent</title>
<polygon fill="#ffffb3" stroke="black" points="1111.86,-84.8 952.14,-84.8 952.14,-48.8 1111.86,-48.8 1111.86,-84.8"/>
<text text-anchor="middle" x="1032" y="-62.6" font-family="Times,serif" font-size="14.00">EditarUsuarioComponent</text>
</g>
<!-- EditarUsuarioComponent&#45;&gt;AppModule -->
<g id="edge4" class="edge">
<title>EditarUsuarioComponent&#45;&gt;AppModule</title>
<path fill="none" stroke="black" d="M1032,-85.04C1032,-100.37 1032,-119.8 1032,-119.8 1032,-119.8 866.84,-119.8 866.84,-119.8"/>
<polygon fill="black" stroke="black" points="866.84,-116.3 856.84,-119.8 866.84,-123.3 866.84,-116.3"/>
</g>
<!-- FeedComponent -->
<g id="node5" class="node">
<title>FeedComponent</title>
<polygon fill="#ffffb3" stroke="black" points="934.05,-84.8 825.95,-84.8 825.95,-48.8 934.05,-48.8 934.05,-84.8"/>
<text text-anchor="middle" x="880" y="-62.6" font-family="Times,serif" font-size="14.00">FeedComponent</text>
</g>
<!-- FeedComponent&#45;&gt;AppModule -->
<g id="edge5" class="edge">
<title>FeedComponent&#45;&gt;AppModule</title>
<path fill="none" stroke="black" d="M841.28,-84.91C841.28,-84.91 841.28,-103.79 841.28,-103.79"/>
<polygon fill="black" stroke="black" points="837.78,-103.79 841.28,-113.79 844.78,-103.79 837.78,-103.79"/>
</g>
<!-- InicioComponent -->
<g id="node6" class="node">
<title>InicioComponent</title>
<polygon fill="#ffffb3" stroke="black" points="807.99,-84.8 694.01,-84.8 694.01,-48.8 807.99,-48.8 807.99,-84.8"/>
<text text-anchor="middle" x="751" y="-62.6" font-family="Times,serif" font-size="14.00">InicioComponent</text>
</g>
<!-- InicioComponent&#45;&gt;AppModule -->
<g id="edge6" class="edge">
<title>InicioComponent&#45;&gt;AppModule</title>
<path fill="none" stroke="black" d="M790.58,-84.91C790.58,-84.91 790.58,-103.79 790.58,-103.79"/>
<polygon fill="black" stroke="black" points="787.08,-103.79 790.58,-113.79 794.08,-103.79 787.08,-103.79"/>
</g>
<!-- LogarComponent -->
<g id="node7" class="node">
<title>LogarComponent</title>
<polygon fill="#ffffb3" stroke="black" points="676.26,-84.8 561.74,-84.8 561.74,-48.8 676.26,-48.8 676.26,-84.8"/>
<text text-anchor="middle" x="619" y="-62.6" font-family="Times,serif" font-size="14.00">LogarComponent</text>
</g>
<!-- LogarComponent&#45;&gt;AppModule -->
<g id="edge7" class="edge">
<title>LogarComponent&#45;&gt;AppModule</title>
<path fill="none" stroke="black" d="M619,-85.04C619,-100.37 619,-119.8 619,-119.8 619,-119.8 762.95,-119.8 762.95,-119.8"/>
<polygon fill="black" stroke="black" points="762.95,-123.3 772.95,-119.8 762.95,-116.3 762.95,-123.3"/>
</g>
<!-- MenuComponent -->
<g id="node8" class="node">
<title>MenuComponent</title>
<polygon fill="#ffffb3" stroke="black" points="543.99,-84.8 430.01,-84.8 430.01,-48.8 543.99,-48.8 543.99,-84.8"/>
<text text-anchor="middle" x="487" y="-62.6" font-family="Times,serif" font-size="14.00">MenuComponent</text>
</g>
<!-- MenuComponent&#45;&gt;AppModule -->
<g id="edge8" class="edge">
<title>MenuComponent&#45;&gt;AppModule</title>
<path fill="none" stroke="black" d="M487,-84.82C487,-102.17 487,-125.8 487,-125.8 487,-125.8 763.13,-125.8 763.13,-125.8"/>
<polygon fill="black" stroke="black" points="763.13,-129.3 773.13,-125.8 763.13,-122.3 763.13,-129.3"/>
</g>
<!-- RodapeComponent -->
<g id="node9" class="node">
<title>RodapeComponent</title>
<polygon fill="#ffffb3" stroke="black" points="412.1,-84.8 287.9,-84.8 287.9,-48.8 412.1,-48.8 412.1,-84.8"/>
<text text-anchor="middle" x="350" y="-62.6" font-family="Times,serif" font-size="14.00">RodapeComponent</text>
</g>
<!-- RodapeComponent&#45;&gt;AppModule -->
<g id="edge9" class="edge">
<title>RodapeComponent&#45;&gt;AppModule</title>
<path fill="none" stroke="black" d="M350,-84.91C350,-104.14 350,-131.8 350,-131.8 350,-131.8 763.33,-131.8 763.33,-131.8"/>
<polygon fill="black" stroke="black" points="763.33,-135.3 773.33,-131.8 763.33,-128.3 763.33,-135.3"/>
</g>
<!-- SobreComponent -->
<g id="node10" class="node">
<title>SobreComponent</title>
<polygon fill="#ffffb3" stroke="black" points="269.99,-84.8 156.01,-84.8 156.01,-48.8 269.99,-48.8 269.99,-84.8"/>
<text text-anchor="middle" x="213" y="-62.6" font-family="Times,serif" font-size="14.00">SobreComponent</text>
</g>
<!-- SobreComponent&#45;&gt;AppModule -->
<g id="edge10" class="edge">
<title>SobreComponent&#45;&gt;AppModule</title>
<path fill="none" stroke="black" d="M213,-85.08C213,-106.12 213,-137.8 213,-137.8 213,-137.8 763.15,-137.8 763.15,-137.8"/>
<polygon fill="black" stroke="black" points="763.15,-141.3 773.15,-137.8 763.15,-134.3 763.15,-141.3"/>
</g>
<!-- TemaComponent -->
<g id="node11" class="node">
<title>TemaComponent</title>
<polygon fill="#ffffb3" stroke="black" points="137.7,-84.8 24.3,-84.8 24.3,-48.8 137.7,-48.8 137.7,-84.8"/>
<text text-anchor="middle" x="81" y="-62.6" font-family="Times,serif" font-size="14.00">TemaComponent</text>
</g>
<!-- TemaComponent&#45;&gt;AppModule -->
<g id="edge11" class="edge">
<title>TemaComponent&#45;&gt;AppModule</title>
<path fill="none" stroke="black" d="M81,-85.05C81,-107.82 81,-143.8 81,-143.8 81,-143.8 763.17,-143.8 763.17,-143.8"/>
<polygon fill="black" stroke="black" points="763.17,-147.3 773.17,-143.8 763.17,-140.3 763.17,-147.3"/>
</g>
<!-- AppComponent  -->
<g id="node14" class="node">
<title>AppComponent </title>
<polygon fill="#80b1d3" stroke="black" points="869.44,-214.8 760.56,-214.8 760.56,-178.8 869.44,-178.8 869.44,-214.8"/>
<text text-anchor="middle" x="815" y="-192.6" font-family="Times,serif" font-size="14.00">AppComponent </text>
</g>
<!-- AppModule&#45;&gt;AppComponent  -->
<g id="edge13" class="edge">
<title>AppModule&#45;&gt;AppComponent </title>
<path fill="none" stroke="black" stroke-dasharray="1,5" d="M815,-149.91C815,-149.91 815,-168.79 815,-168.79"/>
<polygon fill="black" stroke="black" points="811.5,-168.79 815,-178.79 818.5,-168.79 811.5,-168.79"/>
</g>
<!-- AppRoutingModule -->
<g id="node13" class="node">
<title>AppRoutingModule</title>
<polygon fill="#8dd3c7" stroke="black" points="1694.27,-84.8 1691.27,-88.8 1670.27,-88.8 1667.27,-84.8 1565.73,-84.8 1565.73,-48.8 1694.27,-48.8 1694.27,-84.8"/>
<text text-anchor="middle" x="1630" y="-62.6" font-family="Times,serif" font-size="14.00">AppRoutingModule</text>
</g>
<!-- AppRoutingModule&#45;&gt;AppModule -->
<g id="edge12" class="edge">
<title>AppRoutingModule&#45;&gt;AppModule</title>
<path fill="none" stroke="black" d="M1630,-85.05C1630,-107.82 1630,-143.8 1630,-143.8 1630,-143.8 866.82,-143.8 866.82,-143.8"/>
<polygon fill="black" stroke="black" points="866.82,-140.3 856.82,-143.8 866.82,-147.3 866.82,-140.3"/>
</g>
</g>
</svg>
