<?xml version="1.0" encoding="UTF-8" standalone="no"?>
<!DOCTYPE svg PUBLIC "-//W3C//DTD SVG 1.1//EN"
 "http://www.w3.org/Graphics/SVG/1.1/DTD/svg11.dtd">
<!-- Generated by graphviz version 2.47.3 (20210619.1520)
 -->
<!-- Title: dependencies Pages: 1 -->
<svg width="1726pt" height="247pt"
 viewBox="0.00 0.00 1726.00 246.80" xmlns="http://www.w3.org/2000/svg" xmlns:xlink="http://www.w3.org/1999/xlink">
<g id="graph0" class="graph" transform="scale(1 1) rotate(0) translate(4 242.8)">
<title>dependencies</title>
<polygon fill="white" stroke="transparent" points="-4,4 -4,-242.8 1722,-242.8 1722,4 -4,4"/>
<text text-anchor="middle" x="859" y="-8.2" font-family="sans-serif" font-size="14.00">dependencies</text>
<g id="clust1" class="cluster">
<title>cluster_AppModule</title>
<polygon fill="none" stroke="black" stroke-dasharray="1,5" points="8,-32.8 8,-230.8 1710,-230.8 1710,-32.8 8,-32.8"/>
</g>
<g id="clust2" class="cluster">
<title>cluster_AppModule_declarations</title>
<polygon fill="none" stroke="black" points="168,-40.8 168,-92.8 1702,-92.8 1702,-40.8 168,-40.8"/>
</g>
<g id="clust14" class="cluster">
<title>cluster_AppModule_imports</title>
<polygon fill="none" stroke="black" points="16,-40.8 16,-92.8 160,-92.8 160,-40.8 16,-40.8"/>
</g>
<g id="clust16" class="cluster">
<title>cluster_AppModule_bootstrap</title>
<polygon fill="none" stroke="black" points="775,-170.8 775,-222.8 899,-222.8 899,-170.8 775,-170.8"/>
</g>
<!-- AppComponent -->
<g id="node1" class="node">
<title>AppComponent</title>
<polygon fill="#ffffb3" stroke="black" points="1693.94,-84.8 1588.06,-84.8 1588.06,-48.8 1693.94,-48.8 1693.94,-84.8"/>
<text text-anchor="middle" x="1641" y="-62.6" font-family="Times,serif" font-size="14.00">AppComponent</text>
</g>
<!-- AppModule -->
<g id="node12" class="node">
<title>AppModule</title>
<polygon fill="#8dd3c7" stroke="black" points="878.66,-149.8 875.66,-153.8 854.66,-153.8 851.66,-149.8 795.34,-149.8 795.34,-113.8 878.66,-113.8 878.66,-149.8"/>
<text text-anchor="middle" x="837" y="-127.6" font-family="Times,serif" font-size="14.00">AppModule</text>
</g>
<!-- AppComponent&#45;&gt;AppModule -->
<g id="edge1" class="edge">
<title>AppComponent&#45;&gt;AppModule</title>
<path fill="none" stroke="black" d="M1641,-85.05C1641,-107.82 1641,-143.8 1641,-143.8 1641,-143.8 888.81,-143.8 888.81,-143.8"/>
<polygon fill="black" stroke="black" points="888.81,-140.3 878.81,-143.8 888.81,-147.3 888.81,-140.3"/>
</g>
<!-- BarrauserComponent -->
<g id="node2" class="node">
<title>BarrauserComponent</title>
<polygon fill="#ffffb3" stroke="black" points="1569.74,-84.8 1434.26,-84.8 1434.26,-48.8 1569.74,-48.8 1569.74,-84.8"/>
<text text-anchor="middle" x="1502" y="-62.6" font-family="Times,serif" font-size="14.00">BarrauserComponent</text>
</g>
<!-- BarrauserComponent&#45;&gt;AppModule -->
<g id="edge2" class="edge">
<title>BarrauserComponent&#45;&gt;AppModule</title>
<path fill="none" stroke="black" d="M1502,-85.08C1502,-106.12 1502,-137.8 1502,-137.8 1502,-137.8 888.85,-137.8 888.85,-137.8"/>
<polygon fill="black" stroke="black" points="888.85,-134.3 878.85,-137.8 888.85,-141.3 888.85,-134.3"/>
</g>
<!-- CadastrarComponent -->
<g id="node3" class="node">
<title>CadastrarComponent</title>
<polygon fill="#ffffb3" stroke="black" points="1416.47,-84.8 1281.53,-84.8 1281.53,-48.8 1416.47,-48.8 1416.47,-84.8"/>
<text text-anchor="middle" x="1349" y="-62.6" font-family="Times,serif" font-size="14.00">CadastrarComponent</text>
</g>
<!-- CadastrarComponent&#45;&gt;AppModule -->
<g id="edge3" class="edge">
<title>CadastrarComponent&#45;&gt;AppModule</title>
<path fill="none" stroke="black" d="M1349,-84.91C1349,-104.14 1349,-131.8 1349,-131.8 1349,-131.8 888.9,-131.8 888.9,-131.8"/>
<polygon fill="black" stroke="black" points="888.9,-128.3 878.9,-131.8 888.9,-135.3 888.9,-128.3"/>
</g>
<!-- EditarUsuarioComponent -->
<g id="node4" class="node">
<title>EditarUsuarioComponent</title>
<polygon fill="#ffffb3" stroke="black" points="1263.86,-84.8 1104.14,-84.8 1104.14,-48.8 1263.86,-48.8 1263.86,-84.8"/>
<text text-anchor="middle" x="1184" y="-62.6" font-family="Times,serif" font-size="14.00">EditarUsuarioComponent</text>
</g>
<!-- EditarUsuarioComponent&#45;&gt;AppModule -->
<g id="edge4" class="edge">
<title>EditarUsuarioComponent&#45;&gt;AppModule</title>
<path fill="none" stroke="black" d="M1184,-84.82C1184,-102.17 1184,-125.8 1184,-125.8 1184,-125.8 888.86,-125.8 888.86,-125.8"/>
<polygon fill="black" stroke="black" points="888.86,-122.3 878.86,-125.8 888.86,-129.3 888.86,-122.3"/>
</g>
<!-- FeedComponent -->
<g id="node5" class="node">
<title>FeedComponent</title>
<polygon fill="#ffffb3" stroke="black" points="1086.05,-84.8 977.95,-84.8 977.95,-48.8 1086.05,-48.8 1086.05,-84.8"/>
<text text-anchor="middle" x="1032" y="-62.6" font-family="Times,serif" font-size="14.00">FeedComponent</text>
</g>
<!-- FeedComponent&#45;&gt;AppModule -->
<g id="edge5" class="edge">
<title>FeedComponent&#45;&gt;AppModule</title>
<path fill="none" stroke="black" d="M1032,-85.04C1032,-100.37 1032,-119.8 1032,-119.8 1032,-119.8 888.83,-119.8 888.83,-119.8"/>
<polygon fill="black" stroke="black" points="888.83,-116.3 878.83,-119.8 888.83,-123.3 888.83,-116.3"/>
</g>
<!-- InicioComponent -->
<g id="node6" class="node">
<title>InicioComponent</title>
<polygon fill="#ffffb3" stroke="black" points="959.99,-84.8 846.01,-84.8 846.01,-48.8 959.99,-48.8 959.99,-84.8"/>
<text text-anchor="middle" x="903" y="-62.6" font-family="Times,serif" font-size="14.00">InicioComponent</text>
</g>
<!-- InicioComponent&#45;&gt;AppModule -->
<g id="edge6" class="edge">
<title>InicioComponent&#45;&gt;AppModule</title>
<path fill="none" stroke="black" d="M862.42,-84.91C862.42,-84.91 862.42,-103.79 862.42,-103.79"/>
<polygon fill="black" stroke="black" points="858.92,-103.79 862.42,-113.79 865.92,-103.79 858.92,-103.79"/>
</g>
<!-- LogarComponent -->
<g id="node7" class="node">
<title>LogarComponent</title>
<polygon fill="#ffffb3" stroke="black" points="828.26,-84.8 713.74,-84.8 713.74,-48.8 828.26,-48.8 828.26,-84.8"/>
<text text-anchor="middle" x="771" y="-62.6" font-family="Times,serif" font-size="14.00">LogarComponent</text>
</g>
<!-- LogarComponent&#45;&gt;AppModule -->
<g id="edge7" class="edge">
<title>LogarComponent&#45;&gt;AppModule</title>
<path fill="none" stroke="black" d="M811.78,-84.91C811.78,-84.91 811.78,-103.79 811.78,-103.79"/>
<polygon fill="black" stroke="black" points="808.28,-103.79 811.78,-113.79 815.28,-103.79 808.28,-103.79"/>
</g>
<!-- MenuComponent -->
<g id="node8" class="node">
<title>MenuComponent</title>
<polygon fill="#ffffb3" stroke="black" points="695.99,-84.8 582.01,-84.8 582.01,-48.8 695.99,-48.8 695.99,-84.8"/>
<text text-anchor="middle" x="639" y="-62.6" font-family="Times,serif" font-size="14.00">MenuComponent</text>
</g>
<!-- MenuComponent&#45;&gt;AppModule -->
<g id="edge8" class="edge">
<title>MenuComponent&#45;&gt;AppModule</title>
<path fill="none" stroke="black" d="M639,-85.04C639,-100.37 639,-119.8 639,-119.8 639,-119.8 785.01,-119.8 785.01,-119.8"/>
<polygon fill="black" stroke="black" points="785.01,-123.3 795.01,-119.8 785.01,-116.3 785.01,-123.3"/>
</g>
<!-- RodapeComponent -->
<g id="node9" class="node">
<title>RodapeComponent</title>
<polygon fill="#ffffb3" stroke="black" points="564.1,-84.8 439.9,-84.8 439.9,-48.8 564.1,-48.8 564.1,-84.8"/>
<text text-anchor="middle" x="502" y="-62.6" font-family="Times,serif" font-size="14.00">RodapeComponent</text>
</g>
<!-- RodapeComponent&#45;&gt;AppModule -->
<g id="edge9" class="edge">
<title>RodapeComponent&#45;&gt;AppModule</title>
<path fill="none" stroke="black" d="M502,-84.82C502,-102.17 502,-125.8 502,-125.8 502,-125.8 785.25,-125.8 785.25,-125.8"/>
<polygon fill="black" stroke="black" points="785.25,-129.3 795.25,-125.8 785.25,-122.3 785.25,-129.3"/>
</g>
<!-- SobreComponent -->
<g id="node10" class="node">
<title>SobreComponent</title>
<polygon fill="#ffffb3" stroke="black" points="421.99,-84.8 308.01,-84.8 308.01,-48.8 421.99,-48.8 421.99,-84.8"/>
<text text-anchor="middle" x="365" y="-62.6" font-family="Times,serif" font-size="14.00">SobreComponent</text>
</g>
<!-- SobreComponent&#45;&gt;AppModule -->
<g id="edge10" class="edge">
<title>SobreComponent&#45;&gt;AppModule</title>
<path fill="none" stroke="black" d="M365,-84.91C365,-104.14 365,-131.8 365,-131.8 365,-131.8 785.11,-131.8 785.11,-131.8"/>
<polygon fill="black" stroke="black" points="785.11,-135.3 795.11,-131.8 785.11,-128.3 785.11,-135.3"/>
</g>
<!-- TemaComponent -->
<g id="node11" class="node">
<title>TemaComponent</title>
<polygon fill="#ffffb3" stroke="black" points="289.7,-84.8 176.3,-84.8 176.3,-48.8 289.7,-48.8 289.7,-84.8"/>
<text text-anchor="middle" x="233" y="-62.6" font-family="Times,serif" font-size="14.00">TemaComponent</text>
</g>
<!-- TemaComponent&#45;&gt;AppModule -->
<g id="edge11" class="edge">
<title>TemaComponent&#45;&gt;AppModule</title>
<path fill="none" stroke="black" d="M233,-85.08C233,-106.12 233,-137.8 233,-137.8 233,-137.8 785.01,-137.8 785.01,-137.8"/>
<polygon fill="black" stroke="black" points="785.01,-141.3 795.01,-137.8 785.01,-134.3 785.01,-141.3"/>
</g>
<!-- AppComponent  -->
<g id="node14" class="node">
<title>AppComponent </title>
<polygon fill="#80b1d3" stroke="black" points="891.44,-214.8 782.56,-214.8 782.56,-178.8 891.44,-178.8 891.44,-214.8"/>
<text text-anchor="middle" x="837" y="-192.6" font-family="Times,serif" font-size="14.00">AppComponent </text>
</g>
<!-- AppModule&#45;&gt;AppComponent  -->
<g id="edge13" class="edge">
<title>AppModule&#45;&gt;AppComponent </title>
<path fill="none" stroke="black" stroke-dasharray="1,5" d="M837,-149.91C837,-149.91 837,-168.79 837,-168.79"/>
<polygon fill="black" stroke="black" points="833.5,-168.79 837,-178.79 840.5,-168.79 833.5,-168.79"/>
</g>
<!-- AppRoutingModule -->
<g id="node13" class="node">
<title>AppRoutingModule</title>
<polygon fill="#8dd3c7" stroke="black" points="152.27,-84.8 149.27,-88.8 128.27,-88.8 125.27,-84.8 23.73,-84.8 23.73,-48.8 152.27,-48.8 152.27,-84.8"/>
<text text-anchor="middle" x="88" y="-62.6" font-family="Times,serif" font-size="14.00">AppRoutingModule</text>
</g>
<!-- AppRoutingModule&#45;&gt;AppModule -->
<g id="edge12" class="edge">
<title>AppRoutingModule&#45;&gt;AppModule</title>
<path fill="none" stroke="black" d="M88,-85.05C88,-107.82 88,-143.8 88,-143.8 88,-143.8 785.13,-143.8 785.13,-143.8"/>
<polygon fill="black" stroke="black" points="785.13,-147.3 795.13,-143.8 785.13,-140.3 785.13,-147.3"/>
</g>
</g>
</svg>
